<svg width="17" height="20" viewBox="0 0 17 20" fill="none" xmlns="http://www.w3.org/2000/svg">
<circle cx="8.5" cy="10" r="8" fill="#FED843"/>
<circle cx="8.5" cy="10" r="8" fill="url(#paint0_linear_1_27545)"/>
<g filter="url(#filter0_i_1_27545)">
<circle cx="8.65355" cy="9.84629" r="6.92308" fill="url(#paint1_linear_1_27545)"/>
</g>
<circle cx="8.65355" cy="9.84629" r="6.25641" stroke="#FABE2C" stroke-width="1.33333"/>
<rect x="5.11523" y="9.17236" width="1.09822" height="6.77809" rx="0.549111" fill="url(#paint2_linear_1_27545)"/>
<mask id="mask0_1_27545" style="mask-type:alpha" maskUnits="userSpaceOnUse" x="6" y="6" width="3" height="2">
<rect x="8.74023" y="6.61475" width="1.09822" height="2.19644" transform="rotate(90 8.74023 6.61475)" fill="#CD6767"/>
</mask>
<g mask="url(#mask0_1_27545)">
<path d="M6.54379 7.71297C6.54379 7.56875 6.5722 7.42594 6.62739 7.2927C6.68258 7.15945 6.76347 7.03839 6.86545 6.93641C6.96743 6.83443 7.0885 6.75353 7.22174 6.69834C7.35498 6.64315 7.49779 6.61475 7.64201 6.61475L7.64201 7.71297L6.54379 7.71297Z" fill="url(#paint3_linear_1_27545)"/>
</g>
<mask id="mask1_1_27545" style="mask-type:alpha" maskUnits="userSpaceOnUse" x="8" y="6" width="3" height="2">
<rect x="10.6934" y="6.61475" width="1.09822" height="2.19644" rx="0.549111" transform="rotate(90 10.6934 6.61475)" fill="#CD6767"/>
</mask>
<g mask="url(#mask1_1_27545)">
<path d="M9.14475 7.71297C8.78696 7.71297 8.48349 7.39937 8.68252 7.10204C8.72208 7.04295 8.76756 6.98743 8.81858 6.93641C9.02453 6.73045 9.30387 6.61475 9.59514 6.61475C9.8864 6.61475 10.1657 6.73045 10.3717 6.93641C10.4227 6.98743 10.4682 7.04295 10.5078 7.10204C10.7068 7.39937 10.4033 7.71297 10.0455 7.71297L9.59514 7.71297L9.14475 7.71297Z" fill="url(#paint4_linear_1_27545)"/>
</g>
<path d="M8.73605 10.6821C9.03931 10.6821 9.28516 10.928 9.28516 11.2312C9.28516 11.5345 9.03931 11.7804 8.73604 11.7804L6.21356 11.7804L6.21356 10.6821L8.73605 10.6821Z" fill="url(#paint5_linear_1_27545)"/>
<path d="M10.6963 12.1064L9.59807 12.1064L9.59807 10.013C9.59807 9.70969 9.84391 9.46385 10.1472 9.46385C10.4504 9.46385 10.6963 9.70969 10.6963 10.013L10.6963 12.1064Z" fill="url(#paint6_linear_1_27545)"/>
<path d="M6.53906 7.71338L7.63728 7.71338L7.63728 9.80687C7.63728 10.1101 7.39144 10.356 7.08817 10.356C6.78491 10.356 6.53906 10.1101 6.53906 9.80687L6.53906 7.71338Z" fill="url(#paint7_linear_1_27545)"/>
<path d="M11.0195 8.03955L11.0195 9.13777L8.51421 9.13777C8.21095 9.13777 7.9651 8.89193 7.9651 8.58866C7.9651 8.2854 8.21095 8.03955 8.51421 8.03955L11.0195 8.03955Z" fill="url(#paint8_linear_1_27545)"/>
<rect x="9.58105" y="6.61523" width="1.09822" height="1.93905" transform="rotate(90 9.58105 6.61523)" fill="url(#paint9_linear_1_27545)"/>
<mask id="mask2_1_27545" style="mask-type:alpha" maskUnits="userSpaceOnUse" x="11" y="8" width="2" height="3">
<rect x="12.1172" y="10.2356" width="1.09822" height="2.19644" transform="rotate(-180 12.1172 10.2356)" fill="#CD6767"/>
</mask>
<g mask="url(#mask2_1_27545)">
<path d="M11.019 8.03915C11.3102 8.03915 11.5896 8.15486 11.7955 8.36081C12.0015 8.56677 12.1172 8.84611 12.1172 9.13737L11.019 9.13737L11.019 8.03915Z" fill="url(#paint10_linear_1_27545)"/>
</g>
<mask id="mask3_1_27545" style="mask-type:alpha" maskUnits="userSpaceOnUse" x="11" y="9" width="2" height="4">
<rect x="12.1201" y="12.1915" width="1.09822" height="2.19644" rx="0.549111" transform="rotate(-180 12.1201 12.1915)" fill="#CD6767"/>
</mask>
<g mask="url(#mask3_1_27545)">
<path d="M11.0219 10.6429C11.0219 10.2851 11.3355 9.98166 11.6328 10.1807C11.6919 10.2202 11.7474 10.2657 11.7985 10.3167C12.0044 10.5227 12.1201 10.802 12.1201 11.0933C12.1201 11.3846 12.0044 11.6639 11.7985 11.8699C11.7474 11.9209 11.6919 11.9664 11.6328 12.0059C11.3355 12.205 11.0219 11.9015 11.0219 11.5437L11.0219 11.0933L11.0219 10.6429Z" fill="url(#paint11_linear_1_27545)"/>
</g>
<rect x="12.1201" y="11.093" width="1.09822" height="1.95621" transform="rotate(-180 12.1201 11.093)" fill="url(#paint12_linear_1_27545)"/>
<path d="M6.54297 12.897H7.64119V15.8484C7.64119 16.1517 7.39535 16.3976 7.09208 16.3976C6.78881 16.3976 6.54297 16.1517 6.54297 15.8484L6.54297 12.897Z" fill="url(#paint13_linear_1_27545)"/>
<mask id="mask4_1_27545" style="mask-type:alpha" maskUnits="userSpaceOnUse" x="5" y="8" width="2" height="3">
<rect x="5.11426" y="8.07422" width="1.09822" height="2.19644" rx="0.549111" fill="#CD6767"/>
</mask>
<g mask="url(#mask4_1_27545)">
<circle cx="6.21248" cy="9.17244" r="1.09822" fill="url(#paint14_linear_1_27545)"/>
</g>
<mask id="mask5_1_27545" style="mask-type:alpha" maskUnits="userSpaceOnUse" x="9" y="12" width="2" height="2">
<rect x="9.59766" y="13.2046" width="1.09822" height="1.09822" transform="rotate(-90 9.59766 13.2046)" fill="#CD6767"/>
</mask>
<g mask="url(#mask5_1_27545)">
<path d="M10.6925 12.1065C10.6925 12.2507 10.6641 12.3935 10.6089 12.5268C10.5538 12.66 10.4729 12.7811 10.3709 12.8831C10.2689 12.985 10.1478 13.0659 10.0146 13.1211C9.88134 13.1763 9.73854 13.2047 9.59432 13.2047L9.59432 12.1065L10.6925 12.1065Z" fill="url(#paint15_linear_1_27545)"/>
</g>
<path d="M9.59766 12.1068L9.59766 13.205L6.54322 13.205L6.54322 12.7546C6.54322 12.3969 6.83327 12.1068 7.19106 12.1068L9.59766 12.1068Z" fill="url(#paint16_linear_1_27545)"/>
<defs>
<filter id="filter0_i_1_27545" x="1.73047" y="2.92322" width="13.8462" height="14.5129" filterUnits="userSpaceOnUse" color-interpolation-filters="sRGB">
<feFlood flood-opacity="0" result="BackgroundImageFix"/>
<feBlend mode="normal" in="SourceGraphic" in2="BackgroundImageFix" result="shape"/>
<feColorMatrix in="SourceAlpha" type="matrix" values="0 0 0 0 0 0 0 0 0 0 0 0 0 0 0 0 0 0 127 0" result="hardAlpha"/>
<feOffset dy="0.666667"/>
<feGaussianBlur stdDeviation="2.66667"/>
<feComposite in2="hardAlpha" operator="arithmetic" k2="-1" k3="1"/>
<feColorMatrix type="matrix" values="0 0 0 0 0 0 0 0 0 0 0 0 0 0 0 0 0 0 0.25 0"/>
<feBlend mode="normal" in2="shape" result="effect1_innerShadow_1_27545"/>
</filter>
<linearGradient id="paint0_linear_1_27545" x1="8.5" y1="2" x2="8.5" y2="18" gradientUnits="userSpaceOnUse">
<stop stop-color="#FED843"/>
<stop offset="1" stop-color="#FF9100"/>
</linearGradient>
<linearGradient id="paint1_linear_1_27545" x1="8.65355" y1="2.92322" x2="8.65355" y2="16.7694" gradientUnits="userSpaceOnUse">
<stop stop-color="#FED843"/>
<stop offset="0.0001" stop-color="#FFA10F" stop-opacity="0.35"/>
<stop offset="1" stop-color="#FF9100"/>
</linearGradient>
<linearGradient id="paint2_linear_1_27545" x1="5.66435" y1="9.17236" x2="5.66435" y2="15.9505" gradientUnits="userSpaceOnUse">
<stop stop-color="#FEEB40"/>
<stop offset="0.9998" stop-color="#FEB926"/>
<stop offset="0.9999" stop-color="#FEB724"/>
<stop offset="1" stop-color="#FF9303"/>
</linearGradient>
<linearGradient id="paint3_linear_1_27545" x1="8.74023" y1="7.71297" x2="6.54379" y2="7.71297" gradientUnits="userSpaceOnUse">
<stop stop-color="#FEEB40"/>
<stop offset="0.9998" stop-color="#FEB926"/>
<stop offset="0.9999" stop-color="#FEB724"/>
<stop offset="1" stop-color="#FF9303"/>
</linearGradient>
<linearGradient id="paint4_linear_1_27545" x1="10.6934" y1="7.71297" x2="8.49691" y2="7.71297" gradientUnits="userSpaceOnUse">
<stop stop-color="#FEEB40"/>
<stop offset="0.9998" stop-color="#FEB926"/>
<stop offset="0.9999" stop-color="#FEB724"/>
<stop offset="1" stop-color="#FF9303"/>
</linearGradient>
<linearGradient id="paint5_linear_1_27545" x1="9.28516" y1="11.2312" x2="6.21356" y2="11.2312" gradientUnits="userSpaceOnUse">
<stop stop-color="#FEEB40"/>
<stop offset="0.9998" stop-color="#FEB926"/>
<stop offset="0.9999" stop-color="#FEB724"/>
<stop offset="1" stop-color="#FF9303"/>
</linearGradient>
<linearGradient id="paint6_linear_1_27545" x1="10.1472" y1="12.1064" x2="10.1472" y2="9.46385" gradientUnits="userSpaceOnUse">
<stop stop-color="#FEEB40"/>
<stop offset="0.9998" stop-color="#FEB926"/>
<stop offset="0.9999" stop-color="#FEB724"/>
<stop offset="1" stop-color="#FF9303"/>
</linearGradient>
<linearGradient id="paint7_linear_1_27545" x1="7.08817" y1="7.71338" x2="7.08817" y2="10.356" gradientUnits="userSpaceOnUse">
<stop stop-color="#FEEB40"/>
<stop offset="0.9998" stop-color="#FEB926"/>
<stop offset="0.9999" stop-color="#FEB724"/>
<stop offset="1" stop-color="#FF9303"/>
</linearGradient>
<linearGradient id="paint8_linear_1_27545" x1="11.0195" y1="8.58866" x2="7.9651" y2="8.58866" gradientUnits="userSpaceOnUse">
<stop stop-color="#FEEB40"/>
<stop offset="0.9998" stop-color="#FEB926"/>
<stop offset="0.9999" stop-color="#FEB724"/>
<stop offset="1" stop-color="#FF9303"/>
</linearGradient>
<linearGradient id="paint9_linear_1_27545" x1="10.1302" y1="6.61523" x2="10.1302" y2="8.55428" gradientUnits="userSpaceOnUse">
<stop stop-color="#FEEB40"/>
<stop offset="0.9998" stop-color="#FEB926"/>
<stop offset="0.9999" stop-color="#FEB724"/>
<stop offset="1" stop-color="#FF9303"/>
</linearGradient>
<linearGradient id="paint10_linear_1_27545" x1="11.019" y1="10.2356" x2="11.019" y2="8.03915" gradientUnits="userSpaceOnUse">
<stop stop-color="#FEEB40"/>
<stop offset="0.9998" stop-color="#FEB926"/>
<stop offset="0.9999" stop-color="#FEB724"/>
<stop offset="1" stop-color="#FF9303"/>
</linearGradient>
<linearGradient id="paint11_linear_1_27545" x1="11.0219" y1="12.1915" x2="11.0219" y2="9.99508" gradientUnits="userSpaceOnUse">
<stop stop-color="#FEEB40"/>
<stop offset="0.9998" stop-color="#FEB926"/>
<stop offset="0.9999" stop-color="#FEB724"/>
<stop offset="1" stop-color="#FF9303"/>
</linearGradient>
<linearGradient id="paint12_linear_1_27545" x1="12.6692" y1="11.093" x2="12.6692" y2="13.0492" gradientUnits="userSpaceOnUse">
<stop stop-color="#FEEB40"/>
<stop offset="0.9998" stop-color="#FEB926"/>
<stop offset="0.9999" stop-color="#FEB724"/>
<stop offset="1" stop-color="#FF9303"/>
</linearGradient>
<linearGradient id="paint13_linear_1_27545" x1="7.09208" y1="12.897" x2="7.09208" y2="16.3976" gradientUnits="userSpaceOnUse">
<stop stop-color="#FEEB40"/>
<stop offset="0.9998" stop-color="#FEB926"/>
<stop offset="0.9999" stop-color="#FEB724"/>
<stop offset="1" stop-color="#FF9303"/>
</linearGradient>
<linearGradient id="paint14_linear_1_27545" x1="6.21248" y1="8.07422" x2="6.21248" y2="10.2707" gradientUnits="userSpaceOnUse">
<stop stop-color="#FEEB40"/>
<stop offset="0.9998" stop-color="#FEB926"/>
<stop offset="0.9999" stop-color="#FEB724"/>
<stop offset="1" stop-color="#FF9303"/>
</linearGradient>
<linearGradient id="paint15_linear_1_27545" x1="8.49609" y1="12.1065" x2="10.6925" y2="12.1065" gradientUnits="userSpaceOnUse">
<stop stop-color="#FEEB40"/>
<stop offset="0.9998" stop-color="#FEB926"/>
<stop offset="0.9999" stop-color="#FEB724"/>
<stop offset="1" stop-color="#FF9303"/>
</linearGradient>
<linearGradient id="paint16_linear_1_27545" x1="9.59766" y1="12.6559" x2="6.54322" y2="12.6559" gradientUnits="userSpaceOnUse">
<stop stop-color="#FEEB40"/>
<stop offset="0.9998" stop-color="#FEB926"/>
<stop offset="0.9999" stop-color="#FEB724"/>
<stop offset="1" stop-color="#FF9303"/>
</linearGradient>
</defs>
</svg>
