<svg width="24" height="24" viewBox="0 0 24 24" fill="none" xmlns="http://www.w3.org/2000/svg">
<path d="M13.0281 2C14.1535 2.00186 14.7238 2.00781 15.2166 2.02248L15.4107 2.02883C15.6349 2.0368 15.8561 2.0468 16.1228 2.0593C17.1869 2.10846 17.9128 2.2768 18.5503 2.5243C19.2094 2.77846 19.7661 3.1218 20.3219 3.67763C20.8769 4.23346 21.2203 4.7918 21.4753 5.4493C21.7219 6.08596 21.8903 6.81263 21.9403 7.8768C21.9522 8.14346 21.9618 8.36466 21.9697 8.58891L21.976 8.78299C21.9906 9.27574 21.9973 9.84612 21.9994 10.9715L22.0002 11.7172C22.0003 11.8083 22.0003 11.9023 22.0003 11.9993L22.0002 12.2814L21.9996 13.0271C21.9977 14.1525 21.9918 14.7228 21.9771 15.2156L21.9707 15.4097C21.9628 15.6339 21.9528 15.8551 21.9403 16.1218C21.8911 17.1859 21.7219 17.9118 21.4753 18.5493C21.2211 19.2084 20.8769 19.7651 20.3219 20.3209C19.7661 20.8759 19.2069 21.2193 18.5503 21.4743C17.9128 21.7209 17.1869 21.8893 16.1228 21.9393C15.8561 21.9512 15.6349 21.9608 15.4107 21.9687L15.2166 21.975C14.7238 21.9896 14.1535 21.9963 13.0281 21.9984L12.2824 21.9992C12.1913 21.9993 12.0973 21.9993 12.0003 21.9993L11.7182 21.9992L10.9725 21.9986C9.8471 21.9967 9.27672 21.9908 8.78397 21.9761L8.58989 21.9697C8.36564 21.9618 8.14444 21.9518 7.87778 21.9393C6.81361 21.8901 6.08861 21.7209 5.45028 21.4743C4.79194 21.2201 4.23444 20.8759 3.67861 20.3209C3.12278 19.7651 2.78028 19.2059 2.52528 18.5493C2.27778 17.9118 2.11028 17.1859 2.06028 16.1218C2.0484 15.8551 2.03871 15.6339 2.03086 15.4097L2.02457 15.2156C2.00994 14.7228 2.00327 14.1525 2.00111 13.0271L2.00098 10.9715C2.00284 9.84612 2.00879 9.27574 2.02346 8.78299L2.02981 8.58891C2.03778 8.36466 2.04778 8.14346 2.06028 7.8768C2.10944 6.8118 2.27778 6.0868 2.52528 5.4493C2.77944 4.79096 3.12278 4.23346 3.67861 3.67763C4.23444 3.1218 4.79278 2.7793 5.45028 2.5243C6.08778 2.2768 6.81278 2.1093 7.87778 2.0593C8.14444 2.04742 8.36564 2.03773 8.58989 2.02988L8.78397 2.02359C9.27672 2.00896 9.8471 2.00229 10.9725 2.00013L13.0281 2ZM12.0003 6.9993C9.23738 6.9993 7.00028 9.23883 7.00028 11.9993C7.00028 14.7622 9.23981 16.9993 12.0003 16.9993C14.7632 16.9993 17.0003 14.7597 17.0003 11.9993C17.0003 9.2364 14.7607 6.9993 12.0003 6.9993ZM12.0003 8.9993C13.6572 8.9993 15.0003 10.3419 15.0003 11.9993C15.0003 13.6562 13.6576 14.9993 12.0003 14.9993C10.3434 14.9993 9.00028 13.6566 9.00028 11.9993C9.00028 10.3424 10.3429 8.9993 12.0003 8.9993ZM17.2503 5.4993C16.561 5.4993 16.0003 6.0592 16.0003 6.74845C16.0003 7.43769 16.5602 7.99846 17.2503 7.99846C17.9395 7.99846 18.5003 7.43856 18.5003 6.74845C18.5003 6.0592 17.9386 5.49843 17.2503 5.4993Z" fill="#020617"/>
</svg>
