<svg width="116" height="64" viewBox="0 0 116 64" fill="none" xmlns="http://www.w3.org/2000/svg">
<rect width="116" height="64" rx="3.36842" fill="url(#paint0_linear_2002_6647)"/>
<path d="M12.4317 21.8143H14.83V23H11.1921V16.7123H12.4317V21.8143ZM19.5785 22.4431C19.1174 22.8982 18.5545 23.1258 17.8898 23.1258C17.225 23.1258 16.6621 22.8982 16.201 22.4431C15.7459 21.982 15.5184 21.4191 15.5184 20.7544C15.5184 20.0897 15.7459 19.5298 16.201 19.0747C16.6621 18.6136 17.225 18.383 17.8898 18.383C18.5545 18.383 19.1174 18.6136 19.5785 19.0747C20.0396 19.5298 20.2701 20.0897 20.2701 20.7544C20.2701 21.4191 20.0396 21.982 19.5785 22.4431ZM17.0185 21.6436C17.252 21.8772 17.5424 21.994 17.8898 21.994C18.2371 21.994 18.5275 21.8772 18.761 21.6436C18.9946 21.4101 19.1114 21.1137 19.1114 20.7544C19.1114 20.3951 18.9946 20.0987 18.761 19.8651C18.5275 19.6316 18.2371 19.5148 17.8898 19.5148C17.5424 19.5148 17.252 19.6316 17.0185 19.8651C16.7909 20.0987 16.6771 20.3951 16.6771 20.7544C16.6771 21.1137 16.7909 21.4101 17.0185 21.6436ZM26.3262 18.5088H27.5568L26.1286 23H25.0238L24.1974 20.2783L23.371 23H22.2662L20.838 18.5088H22.0686L22.8321 21.2664L23.6495 18.5088H24.7453L25.5627 21.2754L26.3262 18.5088ZM32.4391 21.8143H34.8374V23H31.1995V16.7123H32.4391V21.8143ZM36.7384 21.2305C36.8941 21.7934 37.3163 22.0748 38.0049 22.0748C38.448 22.0748 38.7834 21.9251 39.0109 21.6257L39.9451 22.1646C39.502 22.8054 38.8493 23.1258 37.9869 23.1258C37.2444 23.1258 36.6486 22.9012 36.1994 22.4521C35.7503 22.0029 35.5257 21.4371 35.5257 20.7544C35.5257 20.0777 35.7473 19.5148 36.1905 19.0657C36.6336 18.6106 37.2025 18.383 37.8971 18.383C38.5558 18.383 39.0978 18.6106 39.5229 19.0657C39.9541 19.5208 40.1697 20.0837 40.1697 20.7544C40.1697 20.9041 40.1547 21.0628 40.1248 21.2305H36.7384ZM36.7204 20.3322H39.0109C38.9451 20.0268 38.8073 19.7993 38.5977 19.6495C38.3941 19.4998 38.1606 19.425 37.8971 19.425C37.5857 19.425 37.3282 19.5058 37.1246 19.6675C36.921 19.8232 36.7863 20.0448 36.7204 20.3322ZM44.1177 18.5088H45.3932L43.6865 23H42.3661L40.6594 18.5088H41.9349L43.0218 21.6526L44.1177 18.5088ZM47.1149 21.2305C47.2706 21.7934 47.6927 22.0748 48.3814 22.0748C48.8245 22.0748 49.1599 21.9251 49.3874 21.6257L50.3216 22.1646C49.8785 22.8054 49.2257 23.1258 48.3634 23.1258C47.6209 23.1258 47.025 22.9012 46.5759 22.4521C46.1268 22.0029 45.9022 21.4371 45.9022 20.7544C45.9022 20.0777 46.1238 19.5148 46.5669 19.0657C47.0101 18.6106 47.579 18.383 48.2736 18.383C48.9323 18.383 49.4743 18.6106 49.8994 19.0657C50.3306 19.5208 50.5462 20.0837 50.5462 20.7544C50.5462 20.9041 50.5312 21.0628 50.5013 21.2305H47.1149ZM47.0969 20.3322H49.3874C49.3216 20.0268 49.1838 19.7993 48.9742 19.6495C48.7706 19.4998 48.5371 19.425 48.2736 19.425C47.9622 19.425 47.7047 19.5058 47.5011 19.6675C47.2975 19.8232 47.1628 20.0448 47.0969 20.3322ZM51.7144 23V16.4428H52.8731V23H51.7144ZM13.6893 27.7123C14.5516 27.7123 15.2702 28.0147 15.845 28.6195C16.4259 29.2243 16.7163 29.9699 16.7163 30.8561C16.7163 31.7424 16.4259 32.488 15.845 33.0928C15.2702 33.6976 14.5516 34 13.6893 34H11.1921V27.7123H13.6893ZM13.6893 32.8143C14.2342 32.8143 14.6773 32.6347 15.0187 32.2754C15.36 31.9101 15.5307 31.437 15.5307 30.8561C15.5307 30.2753 15.36 29.8052 15.0187 29.4459C14.6773 29.0806 14.2342 28.898 13.6893 28.898H12.4317V32.8143H13.6893ZM18.8801 32.2305C19.0358 32.7934 19.458 33.0748 20.1467 33.0748C20.5898 33.0748 20.9251 32.9251 21.1527 32.6257L22.0869 33.1646C21.6437 33.8054 20.991 34.1258 20.1287 34.1258C19.3861 34.1258 18.7903 33.9012 18.3412 33.4521C17.8921 33.0029 17.6675 32.4371 17.6675 31.7544C17.6675 31.0777 17.8891 30.5148 18.3322 30.0657C18.7753 29.6106 19.3442 29.383 20.0389 29.383C20.6976 29.383 21.2395 29.6106 21.6647 30.0657C22.0959 30.5208 22.3114 31.0837 22.3114 31.7544C22.3114 31.9041 22.2965 32.0628 22.2665 32.2305H18.8801ZM18.8622 31.3322H21.1527C21.0868 31.0268 20.9491 30.7993 20.7395 30.6495C20.5359 30.4998 20.3024 30.425 20.0389 30.425C19.7275 30.425 19.47 30.5058 19.2664 30.6675C19.0628 30.8232 18.928 31.0448 18.8622 31.3322ZM24.3731 30.7843C24.3731 30.904 24.451 31.0029 24.6067 31.0807C24.7683 31.1526 24.963 31.2184 25.1905 31.2783C25.4181 31.3322 25.6456 31.4041 25.8732 31.4939C26.1007 31.5777 26.2924 31.7215 26.4481 31.9251C26.6098 32.1287 26.6906 32.3832 26.6906 32.6886C26.6906 33.1497 26.5169 33.506 26.1696 33.7575C25.8283 34.003 25.4001 34.1258 24.8851 34.1258C23.9629 34.1258 23.3341 33.7695 22.9988 33.0568L24.0048 32.4909C24.1366 32.8802 24.43 33.0748 24.8851 33.0748C25.2983 33.0748 25.5049 32.9461 25.5049 32.6886C25.5049 32.5688 25.4241 32.473 25.2624 32.4011C25.1067 32.3233 24.9151 32.2544 24.6875 32.1945C24.4599 32.1346 24.2324 32.0598 24.0048 31.97C23.7773 31.8801 23.5827 31.7394 23.421 31.5478C23.2653 31.3502 23.1874 31.1047 23.1874 30.8112C23.1874 30.3681 23.3491 30.0208 23.6725 29.7693C24.0018 29.5118 24.409 29.383 24.8941 29.383C25.2594 29.383 25.5917 29.4669 25.8912 29.6345C26.1906 29.7962 26.4271 30.0298 26.6008 30.3352L25.6127 30.8741C25.469 30.5687 25.2294 30.416 24.8941 30.416C24.7444 30.416 24.6186 30.4489 24.5168 30.5148C24.421 30.5807 24.3731 30.6705 24.3731 30.7843ZM28.37 28.9698C28.1783 28.9698 28.0107 28.901 27.8669 28.7632C27.7292 28.6195 27.6603 28.4518 27.6603 28.2602C27.6603 28.0686 27.7292 27.9009 27.8669 27.7572C28.0107 27.6135 28.1783 27.5416 28.37 27.5416C28.5676 27.5416 28.7352 27.6135 28.873 27.7572C29.0167 27.9009 29.0886 28.0686 29.0886 28.2602C29.0886 28.4518 29.0167 28.6195 28.873 28.7632C28.7352 28.901 28.5676 28.9698 28.37 28.9698ZM27.7951 34V29.5088H28.9538V34H27.7951ZM33.814 29.5088H34.9458V33.7844C34.9458 34.4791 34.7152 35.009 34.2541 35.3743C33.799 35.7396 33.2481 35.9222 32.6013 35.9222C32.1163 35.9222 31.6881 35.8294 31.3168 35.6438C30.9516 35.4582 30.6701 35.1857 30.4725 34.8264L31.4606 34.2605C31.6881 34.6797 32.0803 34.8893 32.6373 34.8893C33.0025 34.8893 33.29 34.7935 33.4996 34.6018C33.7092 34.4102 33.814 34.1377 33.814 33.7844V33.2994C33.4726 33.7545 32.9936 33.982 32.3768 33.982C31.742 33.982 31.209 33.7605 30.7779 33.3173C30.3527 32.8682 30.1401 32.3233 30.1401 31.6825C30.1401 31.0478 30.3557 30.5058 30.7869 30.0567C31.218 29.6076 31.748 29.383 32.3768 29.383C32.9936 29.383 33.4726 29.6106 33.814 30.0657V29.5088ZM31.6492 32.5718C31.8887 32.7993 32.1911 32.9131 32.5564 32.9131C32.9217 32.9131 33.2211 32.7993 33.4547 32.5718C33.6942 32.3382 33.814 32.0418 33.814 31.6825C33.814 31.3292 33.6942 31.0388 33.4547 30.8112C33.2211 30.5777 32.9217 30.4609 32.5564 30.4609C32.1911 30.4609 31.8887 30.5777 31.6492 30.8112C31.4156 31.0388 31.2989 31.3292 31.2989 31.6825C31.2989 32.0418 31.4156 32.3382 31.6492 32.5718ZM38.8529 29.383C39.3439 29.383 39.7482 29.5477 40.0655 29.8771C40.3889 30.2064 40.5506 30.6615 40.5506 31.2424V34H39.3919V31.3861C39.3919 31.0867 39.311 30.8591 39.1493 30.7034C38.9876 30.5418 38.7721 30.4609 38.5026 30.4609C38.2032 30.4609 37.9636 30.5537 37.784 30.7394C37.6043 30.925 37.5145 31.2035 37.5145 31.5747V34H36.3558V29.5088H37.5145V30.0118C37.796 29.5926 38.2421 29.383 38.8529 29.383ZM49.8308 33.6407L48.8427 34.2066L48.2679 33.5868C47.7828 33.9461 47.2199 34.1258 46.5792 34.1258C45.9324 34.1258 45.4025 33.9581 44.9893 33.6227C44.5821 33.2814 44.3785 32.8263 44.3785 32.2574C44.3785 31.8861 44.4683 31.5418 44.6479 31.2244C44.8276 30.907 45.0881 30.6495 45.4294 30.4519C45.2258 30.1286 45.124 29.7782 45.124 29.401C45.124 28.868 45.3096 28.4339 45.6809 28.0985C46.0522 27.7572 46.5223 27.5865 47.0912 27.5865C47.5403 27.5865 47.9415 27.7033 48.2948 27.9368C48.6541 28.1644 48.9206 28.4967 49.0942 28.9339L48.0343 29.5447C47.8607 29.0417 47.5523 28.7902 47.1091 28.7902C46.8935 28.7902 46.7139 28.8531 46.5702 28.9788C46.4324 29.1046 46.3636 29.2633 46.3636 29.4549C46.3636 29.6225 46.4025 29.7753 46.4803 29.913C46.5642 30.0507 46.6959 30.2154 46.8756 30.407L48.2229 31.8801C48.3547 31.5987 48.4565 31.2514 48.5283 30.8382L49.5703 31.431C49.4565 31.9161 49.2739 32.3562 49.0224 32.7514L49.8308 33.6407ZM46.66 32.985C46.9714 32.985 47.2498 32.9101 47.4954 32.7604L46.139 31.2873C46.127 31.2753 46.1211 31.2663 46.1211 31.2604C45.7917 31.464 45.627 31.7544 45.627 32.1316C45.627 32.3891 45.7138 32.5957 45.8875 32.7514C46.0672 32.9071 46.3247 32.985 46.66 32.985ZM14.1743 46.1258C13.2282 46.1258 12.4467 45.8114 11.8299 45.1826C11.2131 44.5538 10.9047 43.7783 10.9047 42.8561C10.9047 41.928 11.2131 41.1525 11.8299 40.5297C12.4467 39.9009 13.2282 39.5865 14.1743 39.5865C14.7432 39.5865 15.2672 39.7213 15.7462 39.9907C16.2313 40.2542 16.6086 40.6135 16.878 41.0686L15.8091 41.6884C15.6534 41.407 15.4319 41.1884 15.1444 41.0327C14.857 40.871 14.5336 40.7902 14.1743 40.7902C13.5635 40.7902 13.0695 40.9818 12.6922 41.3651C12.3209 41.7483 12.1353 42.2453 12.1353 42.8561C12.1353 43.461 12.3209 43.955 12.6922 44.3382C13.0695 44.7215 13.5635 44.9131 14.1743 44.9131C14.5336 44.9131 14.857 44.8353 15.1444 44.6796C15.4378 44.5179 15.6594 44.2993 15.8091 44.0239L16.878 44.6436C16.6086 45.0988 16.2343 45.4611 15.7552 45.7305C15.2762 45.994 14.7492 46.1258 14.1743 46.1258ZM21.7978 45.4431C21.3367 45.8982 20.7738 46.1258 20.109 46.1258C19.4443 46.1258 18.8814 45.8982 18.4203 45.4431C17.9652 44.982 17.7377 44.4191 17.7377 43.7544C17.7377 43.0897 17.9652 42.5298 18.4203 42.0747C18.8814 41.6136 19.4443 41.383 20.109 41.383C20.7738 41.383 21.3367 41.6136 21.7978 42.0747C22.2588 42.5298 22.4894 43.0897 22.4894 43.7544C22.4894 44.4191 22.2588 44.982 21.7978 45.4431ZM19.2378 44.6436C19.4713 44.8772 19.7617 44.994 20.109 44.994C20.4564 44.994 20.7468 44.8772 20.9803 44.6436C21.2139 44.4101 21.3307 44.1137 21.3307 43.7544C21.3307 43.3951 21.2139 43.0987 20.9803 42.8651C20.7468 42.6316 20.4564 42.5148 20.109 42.5148C19.7617 42.5148 19.4713 42.6316 19.2378 42.8651C19.0102 43.0987 18.8964 43.3951 18.8964 43.7544C18.8964 44.1137 19.0102 44.4101 19.2378 44.6436ZM26.161 41.383C26.652 41.383 27.0562 41.5477 27.3736 41.8771C27.697 42.2064 27.8587 42.6615 27.8587 43.2424V46H26.6999V43.3861C26.6999 43.0867 26.6191 42.8591 26.4574 42.7034C26.2957 42.5418 26.0801 42.4609 25.8107 42.4609C25.5112 42.4609 25.2717 42.5537 25.0921 42.7394C24.9124 42.925 24.8226 43.2035 24.8226 43.5747V46H23.6639V41.5088H24.8226V42.0118C25.104 41.5926 25.5502 41.383 26.161 41.383ZM31.3452 46.1258C30.6685 46.1258 30.1026 45.8982 29.6475 45.4431C29.1984 44.988 28.9738 44.4251 28.9738 43.7544C28.9738 43.0837 29.1984 42.5208 29.6475 42.0657C30.1026 41.6106 30.6685 41.383 31.3452 41.383C31.7823 41.383 32.1806 41.4878 32.5399 41.6974C32.8992 41.907 33.1716 42.1884 33.3573 42.5418L32.3602 43.1256C32.2704 42.94 32.1327 42.7933 31.947 42.6855C31.7674 42.5777 31.5638 42.5238 31.3362 42.5238C30.9889 42.5238 30.7014 42.6406 30.4739 42.8741C30.2463 43.1017 30.1326 43.3951 30.1326 43.7544C30.1326 44.1077 30.2463 44.4011 30.4739 44.6347C30.7014 44.8622 30.9889 44.976 31.3362 44.976C31.5698 44.976 31.7763 44.9251 31.956 44.8233C32.1416 44.7155 32.2794 44.5688 32.3692 44.3832L33.3752 44.958C33.1776 45.3113 32.8992 45.5958 32.5399 45.8114C32.1806 46.021 31.7823 46.1258 31.3452 46.1258ZM37.3467 41.5088H38.5054V46H37.3467V45.497C37.0652 45.9162 36.6191 46.1258 36.0083 46.1258C35.5172 46.1258 35.11 45.9611 34.7867 45.6317C34.4693 45.3024 34.3106 44.8473 34.3106 44.2664V41.5088H35.4693V44.1227C35.4693 44.4221 35.5502 44.6526 35.7119 44.8143C35.8735 44.97 36.0891 45.0479 36.3586 45.0479C36.658 45.0479 36.8975 44.955 37.0772 44.7694C37.2568 44.5838 37.3467 44.3053 37.3467 43.934V41.5088ZM41.0847 42.2813C41.1925 41.9938 41.3691 41.7782 41.6147 41.6345C41.8662 41.4908 42.1446 41.4189 42.45 41.4189V42.7124C42.0967 42.6705 41.7793 42.7424 41.4979 42.928C41.2224 43.1136 41.0847 43.422 41.0847 43.8532V46H39.926V41.5088H41.0847V42.2813ZM44.6458 42.2813C44.7535 41.9938 44.9302 41.7782 45.1757 41.6345C45.4272 41.4908 45.7057 41.4189 46.0111 41.4189V42.7124C45.6578 42.6705 45.3404 42.7424 45.0589 42.928C44.7835 43.1136 44.6458 43.422 44.6458 43.8532V46H43.487V41.5088H44.6458V42.2813ZM47.8605 44.2305C48.0162 44.7934 48.4384 45.0748 49.127 45.0748C49.5702 45.0748 49.9055 44.9251 50.1331 44.6257L51.0672 45.1646C50.6241 45.8054 49.9714 46.1258 49.1091 46.1258C48.3665 46.1258 47.7707 45.9012 47.3215 45.4521C46.8724 45.0029 46.6479 44.4371 46.6479 43.7544C46.6479 43.0777 46.8694 42.5148 47.3126 42.0657C47.7557 41.6106 48.3246 41.383 49.0192 41.383C49.6779 41.383 50.2199 41.6106 50.6451 42.0657C51.0762 42.5208 51.2918 43.0837 51.2918 43.7544C51.2918 43.9041 51.2768 44.0628 51.2469 44.2305H47.8605ZM47.8425 43.3322H50.1331C50.0672 43.0268 49.9294 42.7993 49.7199 42.6495C49.5163 42.4998 49.2827 42.425 49.0192 42.425C48.7078 42.425 48.4503 42.5058 48.2467 42.6675C48.0431 42.8232 47.9084 43.0448 47.8425 43.3322ZM54.9571 41.383C55.4482 41.383 55.8524 41.5477 56.1698 41.8771C56.4931 42.2064 56.6548 42.6615 56.6548 43.2424V46H55.4961V43.3861C55.4961 43.0867 55.4152 42.8591 55.2535 42.7034C55.0919 42.5418 54.8763 42.4609 54.6068 42.4609C54.3074 42.4609 54.0679 42.5537 53.8882 42.7394C53.7086 42.925 53.6187 43.2035 53.6187 43.5747V46H52.46V41.5088H53.6187V42.0118C53.9002 41.5926 54.3463 41.383 54.9571 41.383ZM60.1413 46.1258C59.4647 46.1258 58.8988 45.8982 58.4436 45.4431C57.9945 44.988 57.77 44.4251 57.77 43.7544C57.77 43.0837 57.9945 42.5208 58.4436 42.0657C58.8988 41.6106 59.4647 41.383 60.1413 41.383C60.5785 41.383 60.9767 41.4878 61.336 41.6974C61.6953 41.907 61.9678 42.1884 62.1534 42.5418L61.1563 43.1256C61.0665 42.94 60.9288 42.7933 60.7432 42.6855C60.5635 42.5777 60.3599 42.5238 60.1323 42.5238C59.785 42.5238 59.4976 42.6406 59.27 42.8741C59.0425 43.1017 58.9287 43.3951 58.9287 43.7544C58.9287 44.1077 59.0425 44.4011 59.27 44.6347C59.4976 44.8622 59.785 44.976 60.1323 44.976C60.3659 44.976 60.5725 44.9251 60.7521 44.8233C60.9378 44.7155 61.0755 44.5688 61.1653 44.3832L62.1714 44.958C61.9738 45.3113 61.6953 45.5958 61.336 45.8114C60.9767 46.021 60.5785 46.1258 60.1413 46.1258ZM66.1069 41.5088H67.3465L65.7116 46C65.4781 46.6467 65.1667 47.1138 64.7775 47.4013C64.3942 47.6947 63.9152 47.8264 63.3403 47.7965V46.7186C63.6517 46.7246 63.8972 46.6587 64.0768 46.521C64.2625 46.3833 64.4092 46.1617 64.517 45.8563L62.6756 41.5088H63.9421L65.1098 44.5269L66.1069 41.5088Z" fill="#020617"/>
<rect x="95.093" y="17.9648" width="9.83103" height="5.17423" rx="0.378767" fill="#FCD34D"/>
<rect x="75.9484" y="29.3481" width="9.83103" height="5.17423" rx="0.378767" fill="#A7F3D0"/>
<path d="M95.1333 20.6734C95.1649 20.6418 95.1649 20.5906 95.1333 20.559L94.6188 20.0445C94.5872 20.013 94.536 20.013 94.5045 20.0445C94.4729 20.0761 94.4729 20.1273 94.5045 20.1589L94.9618 20.6162L94.5045 21.0736C94.4729 21.1051 94.4729 21.1563 94.5045 21.1879C94.536 21.2195 94.5872 21.2195 94.6188 21.1879L95.1333 20.6734ZM88.8265 20.6162L88.8265 20.6971L95.0761 20.6971L95.0761 20.6162L95.0761 20.5354L88.8265 20.5354L88.8265 20.6162Z" fill="#14171F"/>
<path d="M85.7392 31.9221C85.7076 31.9537 85.7076 32.0048 85.7392 32.0364L86.2537 32.5509C86.2853 32.5825 86.3365 32.5825 86.368 32.5509C86.3996 32.5194 86.3996 32.4682 86.368 32.4366L85.9107 31.9792L86.368 31.5219C86.3996 31.4903 86.3996 31.4391 86.368 31.4076C86.3365 31.376 86.2853 31.376 86.2537 31.4076L85.7392 31.9221ZM91.6672 31.9792V31.8984H85.7964V31.9792V32.0601H91.6672V31.9792Z" fill="#14171F"/>
<path d="M91.4778 43.5315H81.6299" stroke="#14171F" stroke-width="0.161695"/>
<path d="M95.0189 40.9375C95.0505 40.969 95.1017 40.969 95.1333 40.9375L95.6478 40.423C95.6794 40.3914 95.6794 40.3402 95.6478 40.3086C95.6162 40.2771 95.565 40.2771 95.5335 40.3086L95.0761 40.766L94.6188 40.3086C94.5872 40.2771 94.536 40.2771 94.5044 40.3086C94.4729 40.3402 94.4729 40.3914 94.5044 40.423L95.0189 40.9375ZM95.0761 35.3882L94.9953 35.3882L94.9953 40.8803L95.0761 40.8803L95.157 40.8803L95.157 35.3882L95.0761 35.3882Z" fill="#14171F"/>
<path d="M98.7872 31.8781C98.7556 31.9097 98.7556 31.9609 98.7872 31.9925L99.3017 32.507C99.3333 32.5386 99.3845 32.5386 99.4161 32.507C99.4476 32.4754 99.4476 32.4242 99.4161 32.3926L98.9587 31.9353L99.4161 31.478C99.4476 31.4464 99.4476 31.3952 99.4161 31.3636C99.3845 31.3321 99.3333 31.3321 99.3017 31.3636L98.7872 31.8781ZM101.431 31.9353V31.8545H98.8444V31.9353V32.0161H101.431V31.9353Z" fill="#14171F"/>
<line x1="101.367" y1="31.9353" x2="101.367" y2="23.1391" stroke="#14171F" stroke-width="0.129356"/>
<path d="M81.6756 34.3954C81.6504 34.3701 81.6094 34.3701 81.5842 34.3954L81.1726 34.807C81.1473 34.8323 81.1473 34.8732 81.1726 34.8985C81.1978 34.9237 81.2388 34.9237 81.264 34.8985L81.6299 34.5326L81.9958 34.8985C82.021 34.9237 82.062 34.9237 82.0873 34.8985C82.1125 34.8732 82.1125 34.8323 82.0873 34.807L81.6756 34.3954ZM81.6299 43.6262L81.6946 43.6262L81.6946 34.4411L81.6299 34.4411L81.5652 34.4411L81.5652 43.6262L81.6299 43.6262Z" fill="#14171F"/>
<circle cx="86.4262" cy="20.552" r="2.49242" stroke="black" stroke-width="0.189383"/>
<rect x="91.5626" y="31.9719" width="5.04487" height="5.04487" transform="rotate(-45 91.5626 31.9719)" stroke="#14171F" stroke-width="0.129356"/>
<rect x="90.1776" y="40.8608" width="9.83103" height="5.17423" rx="0.378767" fill="black"/>
<defs>
<linearGradient id="paint0_linear_2002_6647" x1="-29.3828" y1="-16.2909" x2="101.383" y2="109.64" gradientUnits="userSpaceOnUse">
<stop stop-color="#A4BCEC"/>
<stop offset="0.531521" stop-color="white"/>
<stop offset="1" stop-color="#A4BCEC"/>
</linearGradient>
</defs>
</svg>
