<svg width="138" height="148" viewBox="0 0 138 148" fill="none" xmlns="http://www.w3.org/2000/svg">
<g filter="url(#filter0_d_1_17500)">
<g clip-path="url(#clip0_1_17500)">
<path d="M68.9997 0L125.292 34.5302V103.591L68.9997 138.121L12.708 103.591V34.5302L68.9997 0Z" fill="#080709"/>
<g filter="url(#filter1_d_1_17500)">
<path d="M69.4676 5.6377L121.305 37.3491V100.772L69.4676 132.483L17.6307 100.772V37.3491L69.4676 5.6377Z" fill="#080709"/>
<path d="M18.0984 37.613L69.4677 6.18774L120.837 37.613V100.508L69.4677 131.934L18.0984 100.508V37.613Z" stroke="#D97035" stroke-width="2"/>
</g>
<g filter="url(#filter2_d_1_17500)">
<path d="M69.4676 10.3354L117.254 39.6979V98.4227L69.4676 127.785L21.6805 98.4227V39.6979L69.4676 10.3354Z" fill="#080709"/>
<path d="M22.1481 39.9613L69.4677 10.8862L116.787 39.9613V98.1597L69.4677 127.235L22.1481 98.1597V39.9613Z" stroke="#3CA5C2" stroke-width="4"/>
</g>
<path d="M68.6182 63.1255C68.6182 66.1902 67.5862 68.6768 65.522 70.5853C63.4762 72.4756 60.9553 73.4207 57.9596 73.4207C54.9273 73.4207 52.3883 72.4756 50.3425 70.5853C48.2966 68.6768 47.2736 66.1902 47.2736 63.1255C47.2736 60.0608 48.2966 57.5834 50.3425 55.6931C52.3883 53.7846 54.9183 52.8303 57.9322 52.8303C60.9463 52.8303 63.4762 53.7846 65.522 55.6931C67.5862 57.5834 68.6182 60.0608 68.6182 63.1255ZM61.3572 63.1806C61.3572 60.6481 61.1107 58.6293 60.6174 57.1246C60.1243 55.6014 59.2201 54.8397 57.9048 54.8397C56.7175 54.8397 55.859 55.5555 55.3292 56.9869C54.7995 58.4 54.5346 60.3728 54.5346 62.9053C54.5346 65.5479 54.7721 67.6308 55.247 69.1539C55.7403 70.6588 56.6627 71.4112 58.0144 71.4112C59.1835 71.4112 60.0329 70.7047 60.5626 69.2916C61.0923 67.8602 61.3572 65.8232 61.3572 63.1806ZM91.6342 83.6884C91.6342 86.7531 90.6022 89.2397 88.538 91.1482C86.4921 93.0384 83.9713 93.9832 80.9756 93.9832C77.9433 93.9832 75.4043 93.0384 73.3584 91.1482C71.3126 89.2397 70.2896 86.7531 70.2896 83.6884C70.2896 80.6236 71.3126 78.1462 73.3584 76.256C75.4043 74.3475 77.9342 73.3931 80.9482 73.3931C83.9621 73.3931 86.4921 74.3475 88.538 76.256C90.6022 78.1462 91.6342 80.6236 91.6342 83.6884ZM84.3732 83.7435C84.3732 81.2109 84.1266 79.1922 83.6334 77.6874C83.1402 76.1642 82.236 75.4026 80.9208 75.4026C79.7335 75.4026 78.8749 76.1183 78.3452 77.5498C77.8155 78.9629 77.5506 80.9357 77.5506 83.4681C77.5506 86.1108 77.7881 88.1937 78.263 89.7168C78.7562 91.2216 79.6787 91.974 81.0304 91.974C82.1995 91.974 83.0489 91.2676 83.5786 89.8545C84.1083 88.423 84.3732 86.3861 84.3732 83.7435ZM87.9078 53.7112L55.4936 93.0201H51.0274L83.3594 53.7112H87.9078Z" fill="white"/>
</g>
</g>
<defs>
<filter id="filter0_d_1_17500" x="0" y="0" width="138" height="148" filterUnits="userSpaceOnUse" color-interpolation-filters="sRGB">
<feFlood flood-opacity="0" result="BackgroundImageFix"/>
<feColorMatrix in="SourceAlpha" type="matrix" values="0 0 0 0 0 0 0 0 0 0 0 0 0 0 0 0 0 0 127 0" result="hardAlpha"/>
<feOffset dy="4"/>
<feGaussianBlur stdDeviation="2"/>
<feComposite in2="hardAlpha" operator="out"/>
<feColorMatrix type="matrix" values="0 0 0 0 0 0 0 0 0 0 0 0 0 0 0 0 0 0 0.25 0"/>
<feBlend mode="normal" in2="BackgroundImageFix" result="effect1_dropShadow_1_17500"/>
<feBlend mode="normal" in="SourceGraphic" in2="effect1_dropShadow_1_17500" result="shape"/>
</filter>
<filter id="filter1_d_1_17500" x="13.0984" y="5.01538" width="112.739" height="136.091" filterUnits="userSpaceOnUse" color-interpolation-filters="sRGB">
<feFlood flood-opacity="0" result="BackgroundImageFix"/>
<feColorMatrix in="SourceAlpha" type="matrix" values="0 0 0 0 0 0 0 0 0 0 0 0 0 0 0 0 0 0 127 0" result="hardAlpha"/>
<feOffset dy="4"/>
<feGaussianBlur stdDeviation="2"/>
<feComposite in2="hardAlpha" operator="out"/>
<feColorMatrix type="matrix" values="0 0 0 0 0 0 0 0 0 0 0 0 0 0 0 0 0 0 0.25 0"/>
<feBlend mode="normal" in2="BackgroundImageFix" result="effect1_dropShadow_1_17500"/>
<feBlend mode="normal" in="SourceGraphic" in2="effect1_dropShadow_1_17500" result="shape"/>
</filter>
<filter id="filter2_d_1_17500" x="16.1481" y="8.53882" width="106.639" height="129.043" filterUnits="userSpaceOnUse" color-interpolation-filters="sRGB">
<feFlood flood-opacity="0" result="BackgroundImageFix"/>
<feColorMatrix in="SourceAlpha" type="matrix" values="0 0 0 0 0 0 0 0 0 0 0 0 0 0 0 0 0 0 127 0" result="hardAlpha"/>
<feOffset dy="4"/>
<feGaussianBlur stdDeviation="2"/>
<feComposite in2="hardAlpha" operator="out"/>
<feColorMatrix type="matrix" values="0 0 0 0 0 0 0 0 0 0 0 0 0 0 0 0 0 0 0.25 0"/>
<feBlend mode="normal" in2="BackgroundImageFix" result="effect1_dropShadow_1_17500"/>
<feBlend mode="normal" in="SourceGraphic" in2="effect1_dropShadow_1_17500" result="shape"/>
</filter>
<clipPath id="clip0_1_17500">
<rect width="130" height="140" fill="white" transform="translate(4)"/>
</clipPath>
</defs>
</svg>
