<svg width="108" height="120" viewBox="0 0 108 120" fill="none" xmlns="http://www.w3.org/2000/svg">
<path d="M49.693 2.5078C52.3579 0.957544 55.6501 0.957545 58.315 2.5078L103.737 28.9305C106.376 30.4657 107.999 33.2883 107.999 36.3413V83.6587C107.999 86.7117 106.376 89.5343 103.737 91.0694L58.315 117.492C55.6501 119.042 52.3579 119.042 49.693 117.492L4.27136 91.0694C1.63241 89.5343 0.00891113 86.7117 0.00891113 83.6587V36.3413C0.00891113 33.2883 1.63242 30.4657 4.27137 28.9305L49.693 2.5078Z" fill="#191D23"/>
<mask id="mask0_1_17829" style="mask-type:alpha" maskUnits="userSpaceOnUse" x="0" y="1" width="108" height="118">
<path d="M49.6841 2.5078C52.349 0.957544 55.6411 0.957545 58.3061 2.5078L103.728 28.9305C106.367 30.4657 107.99 33.2883 107.99 36.3413V83.6587C107.99 86.7117 106.367 89.5343 103.728 91.0694L58.3061 117.492C55.6411 119.042 52.349 119.042 49.6841 117.492L4.26245 91.0694C1.6235 89.5343 0 86.7117 0 83.6587V36.3413C0 33.2883 1.62351 30.4657 4.26245 28.9305L49.6841 2.5078Z" fill="#C4C4C4"/>
</mask>
<g mask="url(#mask0_1_17829)">
<rect x="23.1326" y="57.1111" width="9.68515" height="55.6992" fill="white"/>
<mask id="mask1_1_17829" style="mask-type:alpha" maskUnits="userSpaceOnUse" x="35" y="36" width="21" height="10">
<rect x="55.0925" y="36.0994" width="9.02468" height="19.3703" transform="rotate(90 55.0925 36.0994)" fill="#CD6767"/>
</mask>
<g mask="url(#mask1_1_17829)">
<path d="M35.7222 45.124C35.7222 43.9389 35.9727 42.7654 36.4595 41.6704C36.9462 40.5755 37.6596 39.5806 38.5589 38.7426C39.4583 37.9046 40.526 37.2399 41.701 36.7863C42.8761 36.3328 44.1355 36.0994 45.4074 36.0994L45.4074 45.124L35.7222 45.124Z" fill="white"/>
</g>
<mask id="mask2_1_17829" style="mask-type:alpha" maskUnits="userSpaceOnUse" x="52" y="36" width="21" height="10">
<rect x="72.3074" y="36.0994" width="9.02468" height="19.3703" rx="0.535841" transform="rotate(90 72.3074 36.0994)" fill="#CD6767"/>
</mask>
<g mask="url(#mask2_1_17829)">
<path d="M53.4729 45.124C53.177 45.124 52.9353 44.8838 52.9541 44.5885C53.0943 42.3903 54.0934 40.3084 55.7738 38.7426C57.5901 37.0502 60.0536 36.0994 62.6222 36.0994C65.1909 36.0994 67.6543 37.0502 69.4707 38.7426C71.151 40.3084 72.1502 42.3903 72.2903 44.5885C72.3091 44.8838 72.0675 45.124 71.7715 45.124L62.6222 45.124L53.4729 45.124Z" fill="white"/>
</g>
<path d="M59.3702 69.5186C59.6661 69.5186 59.906 69.7585 59.906 70.0544L59.906 78.0074C59.906 78.3033 59.6661 78.5432 59.3702 78.5432L32.8178 78.5432L32.8179 69.5186L59.3702 69.5186Z" fill="white"/>
<path d="M72.3396 81.2227L62.6544 81.2227L62.6544 60.0429C62.6544 59.7469 62.8944 59.507 63.1903 59.507L71.8038 59.507C72.0997 59.507 72.3396 59.7469 72.3396 60.0429L72.3396 81.2227Z" fill="white"/>
<path d="M35.7009 45.1199L45.3861 45.1199L45.3861 66.2997C45.3861 66.5956 45.1462 66.8355 44.8502 66.8355L36.2368 66.8355C35.9408 66.8355 35.7009 66.5956 35.7009 66.2997L35.7009 45.1199Z" fill="white"/>
<path d="M75.1931 47.8037L75.1931 56.8284L48.7921 56.8284C48.4962 56.8284 48.2563 56.5885 48.2563 56.2925L48.2563 48.3395C48.2563 48.0436 48.4962 47.8037 48.7921 47.8037L75.1931 47.8037Z" fill="white"/>
<path d="M62.657 81.2227L62.657 90.2473L35.7202 90.2473L35.7202 81.7585C35.7202 81.4626 35.9601 81.2227 36.256 81.2227L62.657 81.2227Z" fill="white"/>
<rect x="62.5046" y="36.0994" width="9.02468" height="17.1003" transform="rotate(90 62.5046 36.0994)" fill="white"/>
<mask id="mask3_1_17829" style="mask-type:alpha" maskUnits="userSpaceOnUse" x="75" y="47" width="10" height="19">
<rect x="84.864" y="65.8538" width="9.68515" height="18.0494" transform="rotate(-180 84.864 65.8538)" fill="#CD6767"/>
</mask>
<g mask="url(#mask3_1_17829)">
<path d="M75.1789 47.8044C77.7475 47.8044 80.211 48.7552 82.0273 50.4477C83.8436 52.1401 84.864 54.4356 84.864 56.8291L75.1789 56.8291L75.1789 47.8044Z" fill="white"/>
</g>
<mask id="mask4_1_17829" style="mask-type:alpha" maskUnits="userSpaceOnUse" x="75" y="63" width="10" height="19">
<rect x="84.8904" y="81.929" width="9.68515" height="18.0494" rx="0.535841" transform="rotate(-180 84.8904 81.929)" fill="#CD6767"/>
</mask>
<g mask="url(#mask4_1_17829)">
<path d="M75.2052 64.4154C75.2052 64.1195 75.4454 63.8782 75.7409 63.8934C78.1143 64.0158 80.364 64.9484 82.0537 66.5229C83.87 68.2153 84.8904 70.5108 84.8904 72.9043C84.8904 75.2978 83.87 77.5932 82.0537 79.2857C80.364 80.8601 78.1143 81.7927 75.7409 81.9152C75.4454 81.9304 75.2052 81.6891 75.2052 81.3931L75.2052 72.9043L75.2052 64.4154Z" fill="white"/>
</g>
<rect x="84.8904" y="72.9031" width="9.68515" height="16.0752" transform="rotate(-180 84.8904 72.9031)" fill="white"/>
<path d="M35.7244 90.2468H45.4095L45.4095 118.477C45.4095 118.773 45.1696 119.013 44.8737 119.013H36.2602C35.9643 119.013 35.7244 118.773 35.7244 118.477L35.7244 90.2468Z" fill="white"/>
<mask id="mask5_1_17829" style="mask-type:alpha" maskUnits="userSpaceOnUse" x="23" y="48" width="10" height="19">
<rect x="23.1326" y="48.0884" width="9.68515" height="18.0494" rx="0.535841" fill="#CD6767"/>
</mask>
<g mask="url(#mask5_1_17829)">
<ellipse cx="32.8177" cy="57.1131" rx="9.68515" ry="9.02468" fill="white"/>
</g>
<mask id="mask6_1_17829" style="mask-type:alpha" maskUnits="userSpaceOnUse" x="62" y="81" width="11" height="10">
<rect x="62.657" y="90.2468" width="9.02468" height="9.68515" transform="rotate(-90 62.657 90.2468)" fill="#CD6767"/>
</mask>
<g mask="url(#mask6_1_17829)">
<path d="M72.3076 81.2224C72.3076 82.4075 72.057 83.5811 71.5703 84.676C71.0836 85.7709 70.3702 86.7658 69.4708 87.6038C68.5715 88.4418 67.5038 89.1066 66.3287 89.5601C65.1537 90.0136 63.8943 90.2471 62.6224 90.2471L62.6224 81.2224L72.3076 81.2224Z" fill="white"/>
</g>
</g>
</svg>
