<svg width="140" height="123" viewBox="0 0 140 123" fill="none" xmlns="http://www.w3.org/2000/svg">
<path d="M33.6046 0.427979H106.395C124.944 0.427979 140 13.9024 140 30.5594V92.5674C140 109.199 124.972 122.699 106.395 122.699H33.6046C15.0562 122.699 0 109.224 0 92.5674V30.5594C0 13.9281 15.0562 0.427979 33.6046 0.427979Z" fill="#DC2626"/>
<path d="M33.6721 54.8262L33.5619 58.2911L25.5723 68.1402C28.9059 68.1402 31.0272 68.1082 32.2395 68.044C31.8813 69.9047 31.5782 71.4447 31.3027 73.7225C29.7048 73.5621 27.1977 73.53 24.6907 73.53C21.8805 73.53 19.4561 73.5621 17.5 73.7225L17.5827 70.2256L25.5723 60.4406C22.0734 60.4406 20.806 60.4727 19.3459 60.5368C19.6489 58.7723 19.8969 56.8474 20.1173 54.8904C22.6795 54.9546 23.6988 54.9866 26.9773 54.9866C30.0354 54.9866 31.7435 54.9225 33.6721 54.8262ZM39.3475 65.702C39.3475 68.044 40.0362 69.1989 41.1933 69.1989C42.7362 69.1989 43.9484 66.3757 43.9484 62.943C43.9484 60.601 43.2596 59.446 42.1576 59.446C40.6148 59.446 39.3475 62.2372 39.3475 65.702ZM49.8442 62.6542C49.8442 68.9744 45.9044 74.2679 40.6699 74.2679C35.9863 74.2679 33.5894 70.6426 33.5894 65.9266C33.5894 59.6385 37.5567 54.3771 42.7637 54.3771C47.5024 54.3771 49.8442 58.0023 49.8442 62.6542ZM112.659 65.702C112.659 68.044 113.348 69.1989 114.505 69.1989C116.048 69.1989 117.26 66.3757 117.26 62.943C117.26 60.601 116.571 59.446 115.469 59.446C113.899 59.446 112.659 62.2372 112.659 65.702ZM123.321 62.558C123.321 68.9744 119.326 74.3 114.037 74.3C109.27 74.3 106.873 70.6426 106.873 65.8303C106.873 59.446 110.896 54.1204 116.158 54.1204C120.979 54.1204 123.321 57.8098 123.321 62.558ZM76.7884 60.5047C77.2017 57.2324 76.9813 54.3129 73.7854 54.3129C71.4712 54.3129 68.9917 56.5266 67.2284 60.216C67.6142 57.1361 67.3937 54.3129 64.2254 54.3129C61.8561 54.3129 59.2664 56.6549 57.5307 60.5047C57.9991 58.0023 57.8889 55.115 57.7511 54.5054C55.9052 54.8583 54.3349 55.0508 52.0757 55.115C52.1584 56.8795 52.0482 59.1573 51.7727 61.3389L51.0288 67.0495C50.7258 69.2952 50.4227 71.8938 50.0921 73.53H56.043C56.0705 72.5355 56.3185 70.9955 56.4562 69.5839L56.9521 65.6378C57.3654 63.1034 59.1837 60.0556 60.5613 60.0556C61.3602 60.0556 61.3327 60.9218 61.1123 62.558L60.5337 66.9853C60.2306 69.231 59.9276 71.8297 59.597 73.4658H65.6305C65.6581 72.4713 65.8509 70.9314 66.0162 69.5198L66.5121 65.5737C66.9254 63.0392 68.7437 59.9914 70.0937 59.9914C70.8926 59.9914 70.8651 60.8256 70.7549 61.9484L69.2947 73.4017H74.8048L76.7884 60.5047ZM105.579 68.1723L104.917 72.6959C103.926 73.3054 102.08 74.1716 99.9308 74.1716C96.2941 74.1716 95.5502 71.958 96.1288 67.274L97.0655 59.7348H95.2472L95.7431 54.8262L97.6992 54.73L98.443 51.1689L103.981 48.8269L103.292 54.73H107.094C106.984 55.3395 106.515 58.7081 106.405 59.7348H102.686L101.832 66.7286C101.611 68.5252 101.749 69.1669 102.824 69.1669C103.678 69.1348 104.862 68.5894 105.579 68.1723Z" fill="white"/>
<path d="M84.5573 70.2897C86.596 70.0009 87.946 67.7873 88.3041 65.6057L88.3592 64.9962C87.4776 64.7716 86.2379 64.6112 85.0256 64.7716C83.8685 64.932 82.9043 65.4774 82.4084 66.2794C82.0226 66.8569 81.8298 67.5306 81.9124 68.3327C81.9951 69.5518 83.1798 70.4822 84.5573 70.2897ZM82.8216 73.8187C79.9839 74.2358 78.0829 72.9525 77.5319 70.001C77.1738 68.1723 77.6697 66.087 78.5238 64.8358C79.6809 63.1996 81.5267 62.1409 83.841 61.8201C85.6869 61.5634 87.2297 61.6917 88.6623 62.0125L88.7449 61.7238C88.8 61.2747 88.8276 60.8255 88.7725 60.2801C88.6347 58.9006 87.6705 58.0665 85.3011 58.3873C83.7032 58.6119 82.1604 59.2535 80.9757 59.9914L79.8186 56.0453C81.4165 55.0187 83.4277 54.2166 85.742 53.8958C90.15 53.2542 93.2632 54.8903 93.6489 58.5477C93.7316 59.5422 93.7591 60.5689 93.6489 61.4992C93.0704 66.0549 92.7122 69.4556 92.5744 71.7655C92.5469 72.1184 92.5469 72.7279 92.5744 73.5941H87.0919C87.2021 73.2412 87.3123 72.76 87.395 72.1504C87.4776 71.7334 87.5052 71.2521 87.5327 70.6105C86.4032 72.4392 84.8328 73.53 82.8216 73.8187Z" fill="white"/>
</svg>
